<svg width="160" height="160" viewBox="0 0 160 160" fill="none" xmlns="http://www.w3.org/2000/svg">
    <path d="M0 32C0 14.3269 14.3269 0 32 0H128C145.673 0 160 14.3269 160 32V128C160 145.673 145.673 160 128 160H32C14.3269 160 0 145.673 0 128V32Z" fill="#FFDC24"/>
    <path d="M120.368 87.2696V83.7696C132.368 74.2694 132.618 72.0199 134.868 70.2699C137.118 68.5199 141.118 62.5337 141.118 60.2699C141.118 58.5199 137.868 54.2699 136.368 51.0199C134.868 47.7699 133.885 45.118 131.118 40.7699C127.618 35.2699 126.868 34.5199 124.118 35.2699C121.894 35.8764 115.528 34.4252 111.118 33.0234C105.868 31.3549 102.368 31.7725 98.6176 33.9412C94.8942 36.0944 83.1176 38.7697 70.3675 42.7697C57.6175 46.7697 55.8675 45.0234 51.1175 47.5197C44.9171 50.7781 34.1175 53.5234 30.6175 55.0234C27.1708 56.5006 22.4403 56.7538 20.9404 58C20.4971 58.3683 18.371 63.8749 17.4406 69C16.5661 73.8169 15.1904 77.5 16.6177 78.7696C17.1904 79.2792 18.1193 80.9308 19.8675 82.0234C21.8675 83.2734 22.6175 86.8984 24.3675 87.5234C28.8675 89.1306 29.8677 91.7696 32.3677 92.0196C34.8677 92.2696 37.3677 93.0196 39.1177 93.2696C40.8677 93.5196 46.7032 93.3946 47.1177 94.0196C47.6175 94.7734 47.8675 95.2734 47.8675 100.023C47.8675 104.773 48.1177 114.52 48.1177 117.52C48.1177 120.52 49.1175 121.523 56.1177 124.27C61.2694 126.291 68.3677 127.77 81.3677 127.77C94.3677 127.77 104.118 126.52 109.368 125.52C114.618 124.52 117.618 121.02 118.618 119.77C119.618 118.52 119.868 116.02 119.868 112.77C119.868 109.52 120.047 99.3058 119.868 96.2697C119.618 92.0234 120.368 88.7696 120.368 87.2696Z" fill="black"/>
</svg>
